<?xml version="1.0" standalone="no"?>
<!DOCTYPE svg PUBLIC "-//W3C//DTD SVG 20010904//EN"
 "http://www.w3.org/TR/2001/REC-SVG-20010904/DTD/svg10.dtd">
<svg version="1.0" xmlns="http://www.w3.org/2000/svg"
 width="260.000000pt" height="260.000000pt" viewBox="0 0 260.000000 260.000000"
 preserveAspectRatio="xMidYMid meet">
<metadata>
Created by potrace 1.11, written by Peter Selinger 2001-2013
</metadata>
<g transform="translate(0.000000,260.000000) scale(0.100000,-0.100000)"
fill="#000000" stroke="none">
<path d="M97 2493 c-4 -3 -7 -235 -7 -514 0 -475 1 -508 17 -513 10 -3 73 -8
141 -11 l122 -5 1 32 c1 37 2 55 13 143 26 226 74 374 144 448 68 72 187 102
382 95 l95 -3 3 -862 2 -862 -32 -24 c-39 -28 -131 -50 -191 -45 l-42 3 0
-135 0 -135 555 0 555 0 0 135 0 135 -38 -3 c-69 -6 -176 19 -208 49 l-29 27
2 859 3 858 150 -1 c177 -1 240 -16 302 -69 48 -41 105 -147 128 -240 21 -85
45 -255 45 -319 0 -91 -6 -87 144 -80 72 3 134 9 139 13 4 4 6 236 5 517 l-3
509 -1196 3 c-657 1 -1199 -1 -1202 -5z"/>
</g>
</svg>
